<?xml version="1.0" encoding="UTF-8" standalone="no"?>
<!-- Created with Inkscape (http://www.inkscape.org/) -->

<svg
   version="1.1"
   id="svg2"
   width="398"
   height="184.69333"
   viewBox="0 0 398 184.69333"
   sodipodi:docname="cvjw_j478_190709.eps"
   xmlns:inkscape="http://www.inkscape.org/namespaces/inkscape"
   xmlns:sodipodi="http://sodipodi.sourceforge.net/DTD/sodipodi-0.dtd"
   xmlns="http://www.w3.org/2000/svg"
   xmlns:svg="http://www.w3.org/2000/svg">
  <defs
     id="defs6" />
  <sodipodi:namedview
     id="namedview4"
     pagecolor="#ffffff"
     bordercolor="#000000"
     borderopacity="0.25"
     inkscape:showpageshadow="2"
     inkscape:pageopacity="0.0"
     inkscape:pagecheckerboard="0"
     inkscape:deskcolor="#d1d1d1" />
  <g
     id="g8"
     inkscape:groupmode="layer"
     inkscape:label="ink_ext_XXXXXX"
     transform="matrix(1.3333333,0,0,-1.3333333,0,184.69333)">
    <g
       id="g10"
       transform="scale(0.1)">
      <path
         d="m 1649.92,1201.54 c -24.08,17.31 -55.86,28.51 -88.83,35.39 -64.37,22.74 -145.85,25.02 -197.54,15.7 -25.78,-4.61 -62.31,-15.73 -68.79,-44.5 -8.33,-36.81 90.16,-70.94 112.28,-80.9 74.61,-33.53 201.37,-55.47 274.72,-6.43 37.87,25.34 -10.79,65.62 -31.84,80.74"
         style="fill:#5a3336;fill-opacity:1;fill-rule:nonzero;stroke:none"
         id="path12" />
      <path
         d="m 2730.71,891.656 c -61.56,33.739 -132.46,44.813 -200.25,58.594 -85.02,17.289 -158.3,69.03 -233.78,108.67 -151.94,79.8 -319.16,93.93 -486.94,108.15 -51.55,4.37 -103.28,0.79 -155.12,-2.79 -49.75,-3.43 -99.6,-6.86 -149.47,-3.27 -98.83,7.08 -193.29,46.47 -292.65,55.38 C 1070.61,1229.1 912.043,1162.7 785.813,1105.86 721.098,1076.71 661.105,1050.59 604.441,1007.33 518.32,941.559 414.863,917.977 321.344,867.797 218.188,812.461 51.6211,637.145 76.2305,505.203 69.0313,465.27 74.5664,422.352 97.5195,376.238 159.41,251.988 337.691,215.48 458.152,189.629 c 208.543,-44.731 420.207,-61.828 633.028,-62.098 385.4,-0.492 808.04,-3.422 1181.1,101.61 226.88,63.859 574.01,118.847 635.17,393.211 27.46,123.238 -82.59,217.722 -176.74,269.304"
         style="fill:#e17d5c;fill-opacity:1;fill-rule:nonzero;stroke:none"
         id="path14" />
      <path
         d="M 2532.96,337.641 C 2406,298.602 2276.53,258.859 2145.9,234.578 2021.79,211.531 1895.77,219.672 1770.82,209.738 1607.29,196.77 1443.31,189 1279.27,186.199 1010.53,181.641 757.125,204.148 491.801,244.68 356.215,265.379 210.629,305.371 129.32,421.039 c 1.649,-1.062 3.664,-0.918 5.774,-0.316 -41.9729,57.695 -40.6995,142.769 8.054,223.257 14.981,24.715 33.356,47.958 53.75,69.813 27.969,35.168 58.891,65.937 85.196,87.414 62.433,50.977 138.629,56.863 207.215,91.738 46.457,23.621 86.507,53.375 131.449,79.403 43.441,25.136 86.746,48.262 130.18,68.992 51.402,32.36 103.992,62.72 160.269,86.67 70.785,30.1 143.643,51.55 221.503,46.13 89.63,-6.27 172.13,-34.63 259.56,-51.9 104.85,-20.69 209.95,-11.25 315.28,-1.81 96.33,8.63 192.86,17.27 289.59,2.85 55.54,-8.28 103.46,-24.09 147.69,-44.89 2.94,-0.75 5.92,-1.23 8.86,-2.02 102.59,-27.11 194.07,-91.35 287.35,-139.296 105.06,-53.992 223.65,-67.429 324.96,-135.976 45.46,-30.731 72.69,-77.75 93.05,-127.102 82.02,-198.805 -206.64,-299.656 -326.09,-336.355"
         style="fill:#f7a674;fill-opacity:1;fill-rule:nonzero;stroke:none"
         id="path16" />
      <path
         d="M 732.211,891.035 C 695.648,887.359 657.004,871.664 620.758,850.98 542.363,819.297 464.898,754.586 424.531,703.52 c -20.133,-25.446 -44.926,-65.7 -27.324,-97.762 22.473,-40.961 141.859,8.156 170.551,17.078 96.734,30.09 232.437,113.707 260.234,219.367 14.363,54.59 -63.847,52.055 -95.781,48.832"
         style="fill:#5a3336;fill-opacity:1;fill-rule:nonzero;stroke:none"
         id="path18" />
      <path
         d="m 1747.96,616.223 c -41.47,13.449 -90.97,14.894 -140.19,9.761 -100.25,3.039 -215.32,-30.257 -283.52,-66.425 -34.01,-17.996 -80.15,-49.883 -76.34,-93.09 4.78,-55.235 157.94,-58.91 193.32,-62.949 119.44,-13.54 306.73,12.476 387.41,113.929 41.69,52.41 -44.47,87.02 -80.68,98.774"
         style="fill:#5a3336;fill-opacity:1;fill-rule:nonzero;stroke:none"
         id="path20" />
      <path
         d="m 2282.18,927.777 c -24.08,17.317 -55.87,28.5 -88.84,35.387 -64.36,22.742 -145.84,25.016 -197.54,15.699 -25.77,-4.609 -62.3,-15.722 -68.79,-44.504 -8.32,-36.8 90.17,-70.937 112.29,-80.886 74.62,-33.535 201.37,-55.477 274.71,-6.438 37.88,25.344 -10.79,65.625 -31.83,80.742"
         style="fill:#5a3336;fill-opacity:1;fill-rule:nonzero;stroke:none"
         id="path22" />
      <path
         d="m 350.023,527.711 c 35.563,0.727 70.821,0.105 105.215,-14.922 23.664,-5.367 46.7,-13.359 68.317,-26.789 22.05,-13.703 47.113,-29.891 71.582,-48.062 -29.942,40.035 -66.532,72.929 -113.321,99.523 -63.355,36 -138.714,12.184 -205.933,10.371 l -1.903,-0.57 c 24.168,-10.426 49.801,-15.871 76.043,-19.551"
         style="fill:#e17d5c;fill-opacity:1;fill-rule:nonzero;stroke:none"
         id="path24" />
      <path
         d="m 932.668,628.734 c 48.395,-7.418 95.342,-18.988 141.572,-33.754 -94.123,66.024 -199.924,64.008 -310.572,40.973 29.27,-6.387 59.406,-5.531 89.742,-4.676 26.418,0.746 52.981,1.493 79.258,-2.543"
         style="fill:#e17d5c;fill-opacity:1;fill-rule:nonzero;stroke:none"
         id="path26" />
      <path
         d="m 1499.52,964.535 c 70.99,-5.086 138.8,-28.051 208.69,-37.715 -67.54,30.578 -142.22,68.793 -216.53,63.282 -62.43,-4.657 -125.28,-30.77 -181.62,-60.622 61.42,21.168 126.65,39.551 189.46,35.055"
         style="fill:#e17d5c;fill-opacity:1;fill-rule:nonzero;stroke:none"
         id="path28" />
      <path
         d="m 1949.05,460.766 c 54.9,4.597 109.17,-1.028 163.44,-6.657 43.92,-4.554 87.86,-9.105 132.14,-8.242 -171.41,62.219 -340.57,68.227 -484.71,-58.367 57.69,36.891 121.08,67.555 189.13,73.266"
         style="fill:#e17d5c;fill-opacity:1;fill-rule:nonzero;stroke:none"
         id="path30" />
      <path
         d="m 2489.95,751.707 c -15.47,6.496 -30.59,14.039 -45.85,21.008 -17.63,2.066 -35.28,3.441 -52.74,3.75 -45.63,0.769 -80.29,-19.371 -116.35,-37.164 60.26,11.367 121.26,17.359 182.32,5.883 31.48,-5.918 62.43,-13.735 93.2,-22.18 -19.39,10.273 -39.3,19.758 -60.58,28.703"
         style="fill:#e17d5c;fill-opacity:1;fill-rule:nonzero;stroke:none"
         id="path32" />
      <path
         d="m 1206.47,420.688 c 27.52,1.289 55.14,2.406 82.52,0.019 l 1.25,0.098 c 24.85,0.8 49.82,-6.219 74.5,-16.766 54.25,-16.625 105.06,-40.98 152.32,-72.91 -45.12,65.301 -107.29,94.223 -181.13,117.891 -63.5,20.343 -140.55,-12.344 -206.13,-24.899 25.44,-1.781 50.86,-4.652 76.67,-3.433"
         style="fill:#e17d5c;fill-opacity:1;fill-rule:nonzero;stroke:none"
         id="path34" />
      <path
         d="m 809.98,1023.39 c 27.68,2.53 54.879,8.47 82.227,13.24 3.148,0.91 6.152,2.1 9.336,2.96 27.41,7.38 51.73,7.61 74.617,3.78 58.63,-1.1 115.14,-12.88 172.31,-25 l -1.26,2.04 c -124.02,99.34 -229.647,59.06 -349.62,1.84 4.125,0.37 8.23,0.76 12.39,1.14"
         style="fill:#e17d5c;fill-opacity:1;fill-rule:nonzero;stroke:none"
         id="path36" />
      <path
         d="m 1199.03,127.422 c -36.21,0 -72.22,0.066 -107.85,0.109 -212.821,0.27 -424.485,17.367 -633.028,62.098 -120.461,25.851 -298.742,62.359 -360.6325,186.609 -16.7656,33.688 -24.2382,65.664 -24.2422,96.02 0,11.203 1.0118,22.183 2.9532,32.945 v 0 0 c -1.6563,8.891 -2.4492,17.981 -2.4492,27.215 0,127.809 151.3597,283.77 247.5627,335.379 93.519,50.18 196.976,73.762 283.097,139.533 56.664,43.26 116.657,69.38 181.372,98.53 115.589,52.05 258.297,112.11 390.477,112.11 12.17,0 24.25,-0.51 36.21,-1.58 99.36,-8.91 193.82,-48.3 292.65,-55.38 15.01,-1.08 30.02,-1.53 45.03,-1.53 34.85,0 69.67,2.4 104.44,4.8 34.78,2.4 69.5,4.8 104.16,4.8 17,0 33.99,-0.58 50.96,-2.01 167.78,-14.22 335,-28.35 486.94,-108.15 75.48,-39.64 148.76,-91.381 233.78,-108.67 67.57,-13.734 138.23,-24.785 199.66,-58.27 -48.52,26.442 -102.79,38.868 -156.73,49.704 38.14,-28.047 74.62,-57.856 104.87,-94.184 -78.39,32.73 -161.34,50.574 -237.22,89.574 -93.28,47.946 -184.76,112.186 -287.35,139.296 -2.94,0.79 -5.92,1.27 -8.86,2.02 -44.23,20.8 -92.15,36.61 -147.69,44.89 -37.53,5.6 -75.02,7.72 -112.5,7.72 -59.1,0 -118.14,-5.29 -177.09,-10.57 -58.96,-5.29 -117.84,-10.57 -176.65,-10.57 -34.73,0 -69.45,1.84 -104.13,6.62 -42.06,18.93 -93.67,28.52 -143.86,31.15 -49.24,11.94 -98.54,22.89 -150.2,26.51 -8.15,0.56 -16.23,0.84 -24.28,0.84 -68.79,0 -133.848,-20.03 -197.223,-46.97 C 854.93,1104.06 802.34,1073.7 750.938,1041.34 707.504,1020.61 664.199,997.484 620.758,972.348 575.816,946.32 535.766,916.566 489.309,892.945 420.723,858.07 344.527,852.184 282.094,801.207 255.789,779.73 224.867,748.961 196.898,713.793 176.504,691.938 158.129,668.695 143.148,643.98 94.3945,563.492 93.1211,478.418 135.094,420.723 c -1,-0.285 -1.981,-0.469 -2.91,-0.469 -1.028,0 -1.996,0.226 -2.864,0.785 81.309,-115.668 226.895,-155.66 362.481,-176.359 242.668,-37.059 475.336,-59.071 718.919,-59.071 22.74,0 45.6,0.2 68.55,0.59 164.04,2.801 328.02,10.571 491.55,23.539 76.39,6.071 153.17,5.391 229.68,9.211 -53.94,-10.82 -108.13,-20.371 -162.55,-28.488 -126.61,-18.832 -252.36,-39.981 -378.53,-60.762 274.72,5.961 554.21,26.981 810.45,98.762 -337.96,-94.68 -716.34,-101.039 -1070.84,-101.039 m 1071.04,101.09 c 0.17,0.047 0.35,0.097 0.53,0.148 -0.16,-0.039 -0.37,-0.101 -0.53,-0.148 m 0.94,0.269 c 0.14,0.039 0.27,0.078 0.41,0.11 -0.13,-0.032 -0.27,-0.071 -0.41,-0.11 m 459.4,663.039 c -0.08,0.043 -0.15,0.078 -0.22,0.121 0.07,-0.039 0.15,-0.082 0.22,-0.121"
         style="fill:#c36247;fill-opacity:1;fill-rule:nonzero;stroke:none"
         id="path38" />
      <path
         d="m 1210.72,185.609 c -243.583,0 -476.251,22.012 -718.919,59.071 -135.586,20.699 -281.172,60.691 -362.481,176.359 0.868,-0.559 1.836,-0.785 2.864,-0.785 0.929,0 1.91,0.184 2.91,0.469 -41.9729,57.695 -40.6995,142.769 8.054,223.257 14.981,24.715 33.356,47.958 53.75,69.813 27.969,35.168 58.891,65.937 85.196,87.414 62.433,50.977 138.629,56.863 207.215,91.738 46.457,23.621 86.507,53.375 131.449,79.403 43.441,25.136 86.746,48.262 130.18,68.992 51.402,32.36 103.992,62.72 160.269,86.67 63.375,26.94 128.433,46.97 197.223,46.97 8.05,0 16.13,-0.28 24.28,-0.84 51.66,-3.62 100.96,-14.57 150.2,-26.51 -9.8,0.51 -19.56,0.76 -29.17,0.76 -38.74,0 -75.28,-4.02 -104.26,-10.9 -6.15,-1.45 -9.22,-5.54 -10.29,-10.16 -0.89,-2.61 -1.27,-5.44 -0.36,-8.55 24.91,-83.53 109.49,-124.675 194.5,-124.675 57.97,0 116.15,19.155 155.67,57.075 6.27,6.01 5.38,15.39 0,21.52 -15.92,18.18 -37.4,32.6 -62.23,43.78 34.68,-4.78 69.4,-6.62 104.13,-6.62 58.81,0 117.69,5.28 176.65,10.57 58.95,5.28 117.99,10.57 177.09,10.57 37.48,0 74.97,-2.12 112.5,-7.72 55.54,-8.28 103.46,-24.09 147.69,-44.89 2.94,-0.75 5.92,-1.23 8.86,-2.02 102.59,-27.11 194.07,-91.35 287.35,-139.296 75.88,-39 158.83,-56.844 237.22,-89.574 0.16,-0.195 0.33,-0.391 0.49,-0.586 45.45,-54.809 112.16,-130.918 104.16,-208.344 -8.03,-78.144 -57.61,-132.004 -127.94,-164.519 -74.54,-34.453 -161.9,-71.59 -244.49,-75.453 -70.63,-3.301 -82.94,-61.457 -127.47,-98.317 -27.62,-22.871 -75.51,-33.922 -109.13,-42.293 -57.5,-14.297 -115.3,-27.398 -173.38,-39.039 -76.51,-3.82 -153.29,-3.14 -229.68,-9.211 C 1607.29,196.77 1443.31,189 1279.27,186.199 c -22.95,-0.39 -45.81,-0.59 -68.55,-0.59 M 361.797,508.043 c -50.27,0 -102.438,-11.25 -154.555,-34.203 -5.941,-2.613 -8.945,-11.297 -7.012,-17.18 38.618,-117.332 211.958,-136.101 314.344,-155.609 213.121,-40.602 417.141,-68.692 633.066,-68.692 15.78,0 31.67,0.153 47.58,0.461 89.25,1.7 174.66,-2.422 262.32,17.559 35.12,8.012 -1.69,58.562 -14.38,68.281 -59.9,45.918 -142.75,89.621 -219.28,93.453 -4.05,0.203 -8.07,0.301 -12.09,0.301 -91.9,0 -176.69,-51.023 -266.755,-52.074 48.664,55.558 123.465,85.711 188.235,117.668 8.92,4.398 9.63,17.312 3.09,23.894 -80.81,81.2 -211.739,117.293 -339.915,117.293 -86.351,0 -171.465,-16.39 -239.125,-46.414 -9.754,-4.316 -8.675,-17.113 -3.086,-23.902 38.434,-46.774 55.414,-99.27 58.532,-156.848 -68.657,76.313 -156.493,116.012 -250.969,116.012 M 1498.18,343.371 c 31,-31.082 50.91,-71.922 81.66,-102.633 5.15,41.024 -5.93,77.184 -31.03,113.364 -5.17,7.468 -0.32,20.988 9.1,22.347 71.88,10.426 139.19,37.832 210.53,50.735 0.97,0.175 1.96,0.261 2.94,0.261 9.21,0 18.65,-7.414 16.24,-17.453 -9.33,-6.98 -18.56,-14.465 -27.7,-22.492 8.33,5.328 16.78,10.523 25.34,15.535 -3.82,-10.894 -7.6,-21.676 -11.38,-32.476 -17.89,-12.219 -35.46,-25.911 -52.73,-41.149 -9.12,-8.039 -2.92,-26.058 9.36,-26.058 0.46,0 0.92,0.027 1.39,0.078 25.07,2.711 50.07,3.48 75.02,3.48 16.68,0 33.35,-0.34 50.01,-0.691 16.67,-0.348 33.32,-0.688 49.99,-0.688 33.95,0 67.93,1.438 102.02,7.25 78.9,13.449 156.11,37.66 220.26,86.59 8.38,6.383 11.23,20.496 0,26.281 -27.08,13.961 -55.56,21.625 -84.71,25.219 29.61,-2.851 59.27,-5.109 89.07,-5.109 3.69,0 7.37,0.035 11.07,0.105 -73.47,26.668 -146.52,43.008 -217.37,43.008 -44.23,0 -87.61,-6.371 -129.68,-20.57 -16.27,-1.867 -32.6,-3.668 -48.99,-5.063 -0.31,-0.027 -0.63,-0.039 -0.94,-0.039 -7.66,-0.004 -14.6,7.789 -14.28,15.266 1.07,25.519 12.37,56.078 10.7,80.355 -4.1,59.688 -65.46,83.473 -112.58,91.75 -36.17,6.348 -73.59,9.504 -110.83,9.504 -20.92,0 -41.77,-0.996 -62.33,-2.976 -75.19,-7.239 -154.06,-23.512 -219.19,-64.008 -34.13,-21.199 -130.45,-89.035 -121.59,-147.043 1.33,0.09 2.66,0.172 3.99,0.25 -31.38,-7.106 -62.68,-16.617 -91.74,-22.18 21.2,-1.484 42.38,-3.726 63.79,-3.726 4.28,0 8.57,0.089 12.88,0.293 15.76,0.738 31.55,1.421 47.3,1.421 11.77,0 23.52,-0.382 35.22,-1.402 l 1.25,0.098 c 1.29,0.043 2.58,0.062 3.87,0.062 23.57,0 47.24,-6.832 70.63,-16.828 47.1,-14.43 91.6,-34.687 133.44,-60.668 m -903.043,94.567 v 0 0 c -5.262,7.039 -10.731,13.851 -16.422,20.453 3.457,-2.875 6.84,-5.789 10.152,-8.746 -17.719,37.949 -44.625,68.808 -80.297,99.246 -7.222,6.164 -5.257,19.699 3.094,23.898 81.93,41.391 185.024,75.953 246.82,146.856 22.039,25.285 44.239,51.781 60.598,81.234 12.586,22.691 14.188,35.019 8.566,40.043 0.118,0.426 0.235,0.855 0.344,1.281 11.102,42.192 -33.101,50.262 -68.496,50.262 -10.398,0 -20.031,-0.699 -27.285,-1.43 C 695.648,887.359 657.004,871.664 620.758,850.98 542.363,819.297 464.898,754.586 424.531,703.52 409.902,685.031 392.813,658.723 391.316,633.422 368.41,608.82 346.875,582.723 325.707,556.629 c 9.445,-0.164 18.953,-0.758 28.496,-1.758 -26.547,-2.555 -53.008,-6.355 -78.32,-7.039 l -1.903,-0.57 c 24.168,-10.426 49.801,-15.871 76.043,-19.551 5.493,0.109 10.977,0.191 16.45,0.191 29.98,0 59.679,-2.406 88.765,-15.113 23.664,-5.367 46.7,-13.359 68.317,-26.789 22.05,-13.703 47.113,-29.891 71.582,-48.062 m 1430.093,138.25 c 54.94,0 113.16,-38.063 176.89,-51.247 27.42,-5.671 55.88,-7.039 84.36,-7.039 24.2,0 48.43,0.989 72.04,1.157 1.51,0.007 3.02,0.015 4.53,0.015 9.92,0 19.74,-0.219 29.5,-0.437 9.76,-0.219 19.46,-0.438 29.13,-0.438 26.01,0 51.78,1.582 77.87,9.016 7.78,2.219 13.08,10.734 10.64,18.711 -34.74,112.933 -122.42,145.094 -219.67,145.094 -40.05,0 -81.73,-5.457 -121.99,-12.973 20.18,9.453 41.97,15.918 64.65,21.664 12.28,3.109 15.58,21.871 3.63,27.812 -56.57,28.2 -116.42,45.739 -176.47,64.961 -42.39,13.575 -82.28,31.243 -119.83,55.18 -39.56,21.289 -56.42,56.535 -50.54,105.734 4.16,9.606 11.07,17.973 19.2,25.524 51.44,31.118 120,47.128 169.25,58.198 12.21,2.73 15.69,22.3 3.63,27.8 -56.82,25.99 -115.12,35.14 -174.03,35.14 -99.45,0 -200.63,-26.07 -299.39,-41.21 -16.33,-2.5 -12.61,-24.81 0,-29.35 68.52,-24.72 127.44,-70.547 162.58,-133.508 -9.82,1.184 -19.87,1.899 -30.21,1.899 -1.77,0 -3.55,-0.02 -5.35,-0.063 -43.7,6.34 -88.98,12.824 -133.27,12.824 -44.1,0 -87.21,-6.433 -126.75,-25.847 -82.09,-40.278 -164.49,-98.18 -208.4,-180.5 -4.37,-8.157 -0.93,-20.336 9.1,-22.352 21.88,-4.445 43.83,-6.223 65.82,-6.223 66.28,0 132.87,16.168 198.33,24.293 34.91,4.332 70.2,5.665 105.42,6.223 38,-10.008 75.78,-21.023 114.61,-27.762 28.68,-4.968 57.1,-8.379 85.47,-15.261 60.01,-14.567 55.7,-82.266 60.96,-126.422 0.96,-7.926 8.69,-15.742 16.46,-15.742 3.35,0 6.71,1.453 9.53,4.984 29.96,37.465 60.58,50.145 92.3,50.145 m 625.43,205.445 c -4.78,0 -14.85,-11.488 -9.96,-14.766 21.28,-29.797 39.59,-61.773 56.59,-94.137 21.8,-41.417 24.47,-74.871 9.37,-110.132 9.34,9.269 18.79,18.457 29.19,26.843 l 1.04,0.809 c 6.58,16.277 10.85,33.598 12.19,52.094 3,40.945 -54.79,132.437 -98.01,139.258 -0.13,0.019 -0.27,0.031 -0.41,0.031 M 1074.24,594.98 v 0 0 c -58.02,40.704 -120.502,55.547 -185.799,55.547 -40.628,0 -82.336,-5.742 -124.773,-14.574 19.203,-4.191 38.785,-5.262 58.551,-5.262 10.355,0 20.761,0.293 31.191,0.586 10.43,0.297 20.887,0.59 31.332,0.59 16.016,0 32.024,-0.691 47.926,-3.133 48.395,-7.418 95.342,-18.988 141.572,-33.754 M 420.523,823.473 c -0.043,0 -0.089,0 -0.132,0 -65.641,-0.52 -125.746,-38.664 -175.661,-78.035 -5.082,-4.004 -5.851,-8.95 -4.457,-13.442 -20.453,-21.625 -37.367,-47.426 -50.183,-79.516 -3.801,-9.582 5.711,-18.964 14.691,-19.261 1.992,-0.067 3.957,-0.098 5.914,-0.098 106.239,0 155.602,94.695 220.465,164.367 8.828,9.485 2.945,25.985 -10.637,25.985 M 2374.06,751.137 c 88.71,-7.137 178.19,-33.91 253.56,-65.93 -31.16,84.832 -136.53,124.051 -224.84,124.051 -8.17,0 -16.19,-0.336 -23.99,-1 -0.46,-0.039 -0.9,-0.059 -1.34,-0.059 -11.68,-0.004 -15.87,13.84 -11.8,22.957 38.02,84.981 -58.33,118.684 -163.98,130.168 -2.76,0.645 -5.54,1.258 -8.33,1.84 -41.57,14.691 -90.3,20.844 -133.52,20.844 -23.69,0 -45.72,-1.848 -64.02,-5.145 -25.77,-4.609 -62.3,-15.722 -68.79,-44.504 -4.52,-19.968 22.42,-39.156 51.54,-54.117 15.19,-15.586 34.21,-29.746 50.22,-38.558 72.72,-40 150.04,-41.387 230.78,-43.59 11.98,-0.324 21.88,-17.231 10.77,-25.981 -10.68,-8.398 -19.71,-17.468 -27.92,-26.984 19.17,3.715 38.77,6.031 58.63,7.129 -8.71,-4.238 -17.32,-8.664 -26.02,-12.957 32.83,6.195 65.88,10.793 99.05,11.836 m -1336.15,228.64 c -55.129,0 -111.156,-13.172 -160.953,-36.625 -11.441,-5.375 -8.195,-20.144 0,-26.277 88.293,-66.098 -56.039,-142.023 -89.184,-194.809 -5.363,-8.546 0.903,-22.992 11.606,-22.992 0.5,0 1.012,0.031 1.527,0.098 153.289,19.269 304.394,24.34 445.454,94.137 77.59,38.406 33.3,85.875 -18.91,118.175 -52.29,47.45 -120.2,68.293 -189.54,68.293 m 432.27,-16.746 c 0.15,0 0.3,0 0.45,0 99.83,-0.195 190.7,-31.273 284.23,-61.328 -25.08,69.117 -144.96,122.757 -215.28,122.757 -4.62,0 -9.02,-0.24 -13.18,-0.71 -73.26,-8.36 -187.65,-46.215 -237.03,-114.586 57.99,24.844 114.56,53.867 180.81,53.867 m -490.094,78.519 c 6.965,0 13.973,-0.23 21.054,-0.71 82.31,-5.55 148.36,-58.988 221.47,-91.391 -20.28,68.151 -106.84,151.751 -170.79,161.651 -8.85,1.37 -17.61,2.02 -26.25,2.02 -48.859,0 -94.09,-20.85 -133.687,-50.78 -30.82,-10.55 -62.039,-24.71 -94.293,-40.09 4.125,0.37 8.23,0.76 12.39,1.14 14.809,1.36 29.477,3.68 44.106,6.29 -3.668,-3.57 -7.277,-7.21 -10.809,-10.88 44.746,12.38 89.563,22.75 136.809,22.75 M 1844.7,410.645 c 43.76,26.296 92.39,42.449 144.43,51.808 0.77,0.004 1.55,0.004 2.33,0.004 40.52,0 80.77,-4.172 121.03,-8.348 5.55,-0.574 11.09,-1.148 16.64,-1.714 -9.96,0.761 -19.98,1.097 -30.03,1.097 -9.82,0 -19.66,-0.32 -29.51,-0.879 -7.02,0.239 -13.98,0.36 -20.93,0.36 -72,0 -139.89,-13.09 -203.96,-42.328"
         style="fill:#d68259;fill-opacity:1;fill-rule:nonzero;stroke:none"
         id="path40" />
      <path
         d="m 391.316,633.422 c 1.497,25.301 18.586,51.609 33.215,70.098 40.367,51.066 117.832,115.777 196.227,147.46 36.246,20.684 74.89,36.379 111.453,40.055 7.254,0.731 16.887,1.43 27.285,1.43 35.395,0 79.598,-8.07 68.496,-50.262 -0.109,-0.426 -0.226,-0.855 -0.344,-1.281 -2.097,1.875 -5.203,2.734 -9.117,2.734 -6.355,0 -14.847,-2.258 -24.636,-6.093 -0.286,2.656 -0.778,5.316 -1.489,7.988 -5.172,19.398 -20.804,26.383 -40.855,26.383 -7.719,0 -16.098,-1.036 -24.785,-2.797 -116.825,-2.321 -225.985,-76.504 -294.778,-167.356 -10.008,-13.215 -17.797,-29.156 -15.34,-42.433 -8.652,-8.399 -17.082,-17.067 -25.332,-25.926"
         style="fill:#4e282a;fill-opacity:1;fill-rule:nonzero;stroke:none"
         id="path42" />
      <path
         d="m 1978.55,880.242 c -29.12,14.961 -56.06,34.149 -51.54,54.117 6.49,28.782 43.02,39.895 68.79,44.504 18.3,3.297 40.33,5.145 64.02,5.145 43.22,0 91.95,-6.153 133.52,-20.844 2.79,-0.582 5.57,-1.195 8.33,-1.84 -7.31,0.797 -14.66,1.485 -22.02,2.074 -19.5,9.211 -41.84,12.977 -64.3,12.977 -4.7,0 -9.41,-0.168 -14.1,-0.48 -13.78,1.281 -27.78,2.335 -41.64,2.335 -28.61,0 -56.63,-4.503 -80.86,-20.839 -43.85,-13.426 -28.79,-47.821 -0.2,-77.149 m 217.27,73.738 c -0.09,0.059 -0.18,0.122 -0.27,0.184 0.09,-0.062 0.18,-0.125 0.27,-0.184 m -221.06,0.59 c 0.06,0.043 0.11,0.082 0.17,0.125 -0.06,-0.043 -0.11,-0.082 -0.17,-0.125"
         style="fill:#4e282a;fill-opacity:1;fill-rule:nonzero;stroke:none"
         id="path44" />
      <path
         d="m 595.137,437.938 c -24.469,18.171 -49.532,34.359 -71.582,48.062 -21.617,13.43 -44.653,21.422 -68.317,26.789 -29.086,12.707 -58.785,15.113 -88.765,15.113 -5.473,0 -10.957,-0.082 -16.45,-0.191 -26.242,3.68 -51.875,9.125 -76.043,19.551 l 1.903,0.57 c 25.312,0.684 51.773,4.484 78.32,7.039 80.707,-8.461 163.637,-45.867 224.512,-96.48 5.691,-6.602 11.16,-13.414 16.422,-20.453"
         style="fill:#c36247;fill-opacity:1;fill-rule:nonzero;stroke:none"
         id="path46" />
      <path
         d="m 1074.24,594.98 c -46.23,14.766 -93.177,26.336 -141.572,33.754 -15.902,2.442 -31.91,3.133 -47.926,3.133 -10.445,0 -20.902,-0.293 -31.332,-0.59 -10.43,-0.293 -20.836,-0.586 -31.191,-0.586 -19.766,0 -39.348,1.071 -58.551,5.262 42.437,8.832 84.145,14.574 124.773,14.574 65.297,0 127.779,-14.843 185.799,-55.547"
         style="fill:#c36247;fill-opacity:1;fill-rule:nonzero;stroke:none"
         id="path48" />
      <path
         d="m 1759.92,387.5 c 9.14,8.027 18.37,15.512 27.7,22.492 -0.12,-0.5 -0.27,-1.008 -0.45,-1.519 -0.64,-1.817 -1.27,-3.629 -1.91,-5.438 -8.56,-5.012 -17.01,-10.207 -25.34,-15.535 m 473.64,58.262 c -29.8,0 -59.46,2.258 -89.07,5.109 -5.1,0.629 -10.22,1.133 -15.36,1.524 -5.55,0.566 -11.09,1.14 -16.64,1.714 -40.26,4.176 -80.51,8.348 -121.03,8.348 -0.78,0 -1.56,0 -2.33,-0.004 31.82,5.727 64.92,8.906 98.95,10.317 -21.94,4.031 -44.06,5.585 -66.33,5.585 -40.91,0 -82.32,-5.25 -124.17,-10.05 42.07,14.199 85.45,20.57 129.68,20.57 70.85,0 143.9,-16.34 217.37,-43.008 -3.7,-0.07 -7.38,-0.105 -11.07,-0.105"
         style="fill:#c36247;fill-opacity:1;fill-rule:nonzero;stroke:none"
         id="path50" />
      <path
         d="m 2275.01,739.301 c 8.7,4.293 17.31,8.719 26.02,12.957 9.16,0.504 18.39,0.75 27.64,0.75 15.06,0 30.2,-0.649 45.39,-1.871 -33.17,-1.043 -66.22,-5.641 -99.05,-11.836"
         style="fill:#c36247;fill-opacity:1;fill-rule:nonzero;stroke:none"
         id="path52" />
      <path
         d="m 1498.18,343.371 c -41.84,25.981 -86.34,46.238 -133.44,60.668 -23.39,9.996 -47.06,16.828 -70.63,16.828 -1.29,0 -2.58,-0.019 -3.87,-0.062 l -1.25,-0.098 c -11.7,1.02 -23.45,1.402 -35.22,1.402 -15.75,0 -31.54,-0.683 -47.3,-1.421 -4.31,-0.204 -8.6,-0.293 -12.88,-0.293 -21.41,0 -42.59,2.242 -63.79,3.726 29.06,5.563 60.36,15.074 91.74,22.18 7.81,0.457 15.63,0.691 23.43,0.691 33.95,0 67.77,-4.457 100.33,-14.742 53.51,-16.895 104.4,-44.586 146.23,-82.531 2.28,-2.071 4.49,-4.188 6.65,-6.348"
         style="fill:#c36247;fill-opacity:1;fill-rule:nonzero;stroke:none"
         id="path54" />
      <path
         d="m 797.59,1022.25 c 32.254,15.38 63.473,29.54 94.293,40.09 -13.258,-10.02 -25.875,-21.05 -37.797,-32.66 -14.629,-2.61 -29.297,-4.93 -44.106,-6.29 -4.16,-0.38 -8.265,-0.77 -12.39,-1.14"
         style="fill:#c36247;fill-opacity:1;fill-rule:nonzero;stroke:none"
         id="path56" />
      <path
         d="m 1222.61,949.449 c -73.11,32.403 -139.16,85.841 -221.47,91.391 -7.081,0.48 -14.089,0.71 -21.054,0.71 -47.246,0 -92.063,-10.37 -136.809,-22.75 3.532,3.67 7.141,7.31 10.809,10.88 12.719,2.26 25.402,4.73 38.121,6.95 3.148,0.91 6.152,2.1 9.336,2.96 16.223,4.37 31.363,6.23 45.766,6.23 9.929,0 19.507,-0.89 28.851,-2.45 58.63,-1.1 115.14,-12.88 172.31,-25 v 0 0 l -1.26,2.04 c -54.73,43.84 -105.88,60.48 -156.261,60.48 -33.094,0 -65.844,-7.18 -99.066,-18.55 39.597,29.93 84.828,50.78 133.687,50.78 8.64,0 17.4,-0.65 26.25,-2.02 63.95,-9.9 150.51,-93.5 170.79,-161.651"
         style="fill:#ba6645;fill-opacity:1;fill-rule:nonzero;stroke:none"
         id="path58" />
      <path
         d="m 1148.47,1018.37 c -57.17,12.12 -113.68,23.9 -172.31,25 -9.344,1.56 -18.922,2.45 -28.851,2.45 -14.403,0 -29.543,-1.86 -45.766,-6.23 -3.184,-0.86 -6.188,-2.05 -9.336,-2.96 -12.719,-2.22 -25.402,-4.69 -38.121,-6.95 11.922,11.61 24.539,22.64 37.797,32.66 33.222,11.37 65.972,18.55 99.066,18.55 50.381,0 101.531,-16.64 156.261,-60.48 l 1.26,-2.04"
         style="fill:#a94d37;fill-opacity:1;fill-rule:nonzero;stroke:none"
         id="path60" />
      <path
         d="m 2269.87,228.461 c 0.07,0.019 0.13,0.039 0.2,0.051 -0.06,-0.012 -0.14,-0.032 -0.2,-0.051 m 0.73,0.199 c 0.13,0.039 0.27,0.078 0.41,0.121 -0.14,-0.043 -0.27,-0.082 -0.41,-0.121 m 0.82,0.231 c 0.3,0.089 0.56,0.16 0.86,0.25 226.88,63.859 574.01,118.847 635.17,393.211 2.91,13.058 4.27,25.793 4.28,38.187 -0.01,-12.394 -1.37,-25.129 -4.28,-38.187 C 2846.29,347.988 2499.16,293 2272.28,229.141 c -0.28,-0.082 -0.57,-0.172 -0.86,-0.25 m 459.29,662.765 c -0.1,0.055 -0.2,0.11 -0.3,0.164 0.1,-0.054 0.2,-0.109 0.3,-0.164 m -0.52,0.285 c -0.03,0.012 -0.04,0.024 -0.07,0.039 0.02,-0.015 0.05,-0.027 0.07,-0.039"
         style="fill:#ddc9c4;fill-opacity:1;fill-rule:nonzero;stroke:none"
         id="path62" />
      <path
         d="m 1459.42,129.699 c 126.17,20.781 251.92,41.93 378.53,60.762 54.42,8.117 108.61,17.668 162.55,28.488 48.64,2.422 97.16,6.672 145.4,15.629 130.63,24.281 260.1,64.024 387.06,103.063 119.45,36.699 408.11,137.55 326.09,336.355 -20.36,49.352 -47.59,96.371 -93.05,127.102 -28.14,19.035 -57.6,33.82 -87.74,46.402 -30.25,36.328 -66.73,66.137 -104.87,94.184 53.94,-10.836 108.21,-23.262 156.73,-49.704 0.03,-0.015 0.04,-0.027 0.07,-0.039 0.07,-0.043 0.14,-0.078 0.22,-0.121 0.1,-0.054 0.2,-0.109 0.3,-0.164 v 0 c 84.18,-46.117 181.06,-126.523 181.02,-231.117 -0.01,-12.394 -1.37,-25.129 -4.28,-38.187 C 2846.29,347.988 2499.16,293 2272.28,229.141 c -0.3,-0.09 -0.56,-0.161 -0.86,-0.25 -0.14,-0.032 -0.27,-0.071 -0.41,-0.11 -0.14,-0.043 -0.28,-0.082 -0.41,-0.121 -0.18,-0.051 -0.36,-0.101 -0.53,-0.148 -0.07,-0.012 -0.13,-0.032 -0.2,-0.051 -256.24,-71.781 -535.73,-92.801 -810.45,-98.762"
         style="fill:#a94d37;fill-opacity:1;fill-rule:nonzero;stroke:none"
         id="path64" />
      <path
         d="m 2000.5,218.949 c 58.08,11.641 115.88,24.742 173.38,39.039 33.62,8.371 81.51,19.422 109.13,42.293 44.53,36.86 56.84,95.016 127.47,98.317 82.59,3.863 169.95,41 244.49,75.453 70.33,32.515 119.91,86.375 127.94,164.519 8,77.426 -58.71,153.535 -104.16,208.344 -0.16,0.195 -0.33,0.391 -0.49,0.586 30.14,-12.582 59.6,-27.367 87.74,-46.402 45.46,-30.731 72.69,-77.75 93.05,-127.102 C 2941.07,475.191 2652.41,374.34 2532.96,337.641 2406,298.602 2276.53,258.859 2145.9,234.578 c -48.24,-8.957 -96.76,-13.207 -145.4,-15.629"
         style="fill:#ba6645;fill-opacity:1;fill-rule:nonzero;stroke:none"
         id="path66" />
      <path
         d="m 1754.86,901.703 c -93.53,30.055 -184.4,61.133 -284.23,61.328 -0.15,0 -0.3,0 -0.45,0 -66.25,0 -122.82,-29.023 -180.81,-53.867 49.38,68.371 163.77,106.226 237.03,114.586 4.16,0.47 8.56,0.71 13.18,0.71 70.32,0 190.2,-53.64 215.28,-122.757 m -46.65,25.117 v 0 0 c -63.1,28.571 -132.46,63.817 -201.91,63.817 -4.88,0 -9.74,-0.172 -14.62,-0.535 -62.43,-4.657 -125.28,-30.77 -181.62,-60.622 55.1,18.989 113.27,35.739 170,35.739 6.51,0 12.99,-0.219 19.46,-0.684 70.99,-5.086 138.8,-28.051 208.69,-37.715"
         style="fill:#ba6645;fill-opacity:1;fill-rule:nonzero;stroke:none"
         id="path68" />
      <path
         d="m 1708.21,926.82 c -69.89,9.664 -137.7,32.629 -208.69,37.715 -6.47,0.465 -12.95,0.684 -19.46,0.684 -56.73,0 -114.9,-16.75 -170,-35.739 56.34,29.852 119.19,55.965 181.62,60.622 4.88,0.363 9.74,0.535 14.62,0.535 69.45,0 138.81,-35.246 201.91,-63.817"
         style="fill:#a94d37;fill-opacity:1;fill-rule:nonzero;stroke:none"
         id="path70" />
      <path
         d="m 2195.55,954.164 c -5.31,3.742 -11.16,6.606 -17.03,9.328 0.37,-0.031 0.75,-0.062 1.13,-0.094 5.55,-2.621 10.88,-5.687 15.9,-9.234 m -220.62,0.531 c 1.26,0.934 2.53,1.832 3.82,2.696 0.3,0.093 0.6,0.183 0.91,0.273 -1.55,-1.043 -3.2,-1.851 -4.73,-2.969"
         style="fill:#4e282a;fill-opacity:1;fill-rule:nonzero;stroke:none"
         id="path72" />
      <path
         d="m 2627.62,685.207 c -75.37,32.02 -164.85,58.793 -253.56,65.93 4.69,0.148 9.4,0.226 14.1,0.226 23.03,0 46.09,-1.84 69.17,-6.179 31.48,-5.918 62.43,-13.735 93.2,-22.18 -19.39,10.273 -39.3,19.758 -60.58,28.703 -15.47,6.496 -30.59,14.039 -45.85,21.008 -17.63,2.066 -35.28,3.441 -52.74,3.75 -0.85,0.015 -1.7,0.019 -2.54,0.019 -33.48,0 -61.07,-11.218 -87.79,-24.226 -19.86,-1.098 -39.46,-3.414 -58.63,-7.129 8.21,9.516 17.24,18.586 27.92,26.984 11.11,8.75 1.21,25.657 -10.77,25.981 -80.74,2.203 -158.06,3.59 -230.78,43.59 -16.01,8.812 -35.03,22.972 -50.22,38.558 24.54,-12.609 50.63,-22.219 60.75,-26.769 43.36,-19.489 104.34,-35.063 162.21,-35.063 41.7,-0.004 81.78,8.082 112.5,28.625 37.88,25.344 -10.79,65.625 -31.83,80.742 -22.05,15.852 -50.55,26.567 -80.51,33.547 105.65,-11.484 202,-45.187 163.98,-130.168 -4.07,-9.117 0.12,-22.961 11.8,-22.957 0.44,0 0.88,0.02 1.34,0.059 7.8,0.664 15.82,1 23.99,1 88.31,0 193.68,-39.219 224.84,-124.051"
         style="fill:#ba6645;fill-opacity:1;fill-rule:nonzero;stroke:none"
         id="path74" />
      <path
         d="m 2201.51,818.41 c -57.87,0 -118.85,15.574 -162.21,35.063 -10.12,4.55 -36.21,14.16 -60.75,26.769 -28.59,29.328 -43.65,63.723 0.2,77.149 -1.29,-0.864 -2.56,-1.762 -3.82,-2.696 -0.06,-0.043 -0.11,-0.082 -0.17,-0.125 v 0 c -4.37,-3.222 -7.66,-8.906 -7.66,-14.382 0,-3.481 1.33,-6.879 4.57,-9.516 43.22,-35.274 90.31,-51.844 144.39,-62.488 15.43,-3.036 40.69,-8.489 64.38,-8.489 22.16,0.004 42.94,4.782 52.95,20.782 3.92,6.257 5.6,12.363 5.6,18.253 0.01,22.836 -25.17,42.454 -43.17,55.25 v 0 c -0.09,0.059 -0.18,0.122 -0.27,0.184 -5.02,3.547 -10.35,6.613 -15.9,9.234 7.36,-0.589 14.71,-1.277 22.02,-2.074 29.96,-6.98 58.46,-17.695 80.51,-33.547 21.04,-15.117 69.71,-55.398 31.83,-80.742 -30.72,-20.543 -70.8,-28.629 -112.5,-28.625"
         style="fill:#442020;fill-opacity:1;fill-rule:nonzero;stroke:none"
         id="path76" />
      <path
         d="m 2550.53,723.004 c -30.77,8.445 -61.72,16.262 -93.2,22.18 -23.08,4.339 -46.14,6.179 -69.17,6.179 -4.7,0 -9.41,-0.078 -14.1,-0.226 -15.19,1.222 -30.33,1.871 -45.39,1.871 -9.25,0 -18.48,-0.246 -27.64,-0.75 26.72,13.008 54.31,24.226 87.79,24.226 0.84,0 1.69,-0.004 2.54,-0.019 17.46,-0.309 35.11,-1.684 52.74,-3.75 15.26,-6.969 30.38,-14.512 45.85,-21.008 21.28,-8.945 41.19,-18.43 60.58,-28.703"
         style="fill:#a94d37;fill-opacity:1;fill-rule:nonzero;stroke:none"
         id="path78" />
      <path
         d="m 1773.59,369.738 c 0.09,0.274 0.19,0.551 0.29,0.821 23.08,15.765 46.68,29.07 70.82,40.086 -0.14,-0.082 -0.28,-0.168 -0.42,-0.25 -24.14,-11.024 -47.62,-24.864 -70.69,-40.657"
         style="fill:#d68259;fill-opacity:1;fill-rule:nonzero;stroke:none"
         id="path80" />
      <path
         d="m 1579.84,240.738 c -30.75,30.711 -50.66,71.551 -81.66,102.633 6.35,-3.949 12.65,-8.031 18.88,-12.242 v 0 0 c -21.71,31.422 -47.36,54.41 -76.35,72.449 0.17,-0.019 0.35,-0.039 0.52,-0.058 19.06,-2.161 39.86,-3.313 61.66,-3.313 114.85,-0.004 257.94,31.977 325.75,117.242 41.69,52.41 -44.47,87.02 -80.68,98.774 -27.29,8.851 -58.06,12.504 -89.94,12.504 -16.56,0 -33.42,-0.989 -50.25,-2.743 -4.27,0.129 -8.58,0.196 -12.9,0.196 -97.08,0 -205.33,-31.992 -270.62,-66.621 -34.01,-17.996 -80.15,-49.883 -76.34,-93.09 0.44,-5.133 2.16,-9.821 4.96,-14.106 -10.4,-1.593 -20.86,-3.695 -31.33,-6.062 -1.33,-0.078 -2.66,-0.16 -3.99,-0.25 -8.86,58.008 87.46,125.844 121.59,147.043 65.13,40.496 144,56.769 219.19,64.008 20.56,1.98 41.41,2.976 62.33,2.976 37.24,0 74.66,-3.156 110.83,-9.504 47.12,-8.277 108.48,-32.062 112.58,-91.75 1.67,-24.277 -9.63,-54.836 -10.7,-80.355 -0.32,-7.477 6.62,-15.27 14.28,-15.266 0.31,0 0.63,0.012 0.94,0.039 16.39,1.395 32.72,3.196 48.99,5.063 -37.81,-12.758 -74.56,-31.844 -109.96,-58.313 2.41,10.039 -7.03,17.453 -16.24,17.453 -0.98,0 -1.97,-0.086 -2.94,-0.261 -71.34,-12.903 -138.65,-40.309 -210.53,-50.735 -9.42,-1.359 -14.27,-14.879 -9.1,-22.347 25.1,-36.18 36.18,-72.34 31.03,-113.364 m 194.04,129.821 c 3.78,10.8 7.56,21.582 11.38,32.476 50.75,29.688 105.56,52.844 163.79,57.731 13.39,1.121 26.75,1.636 40.08,1.687 -52.04,-9.359 -100.67,-25.512 -144.43,-51.808 -24.14,-11.016 -47.74,-24.321 -70.82,-40.086"
         style="fill:#ba6645;fill-opacity:1;fill-rule:nonzero;stroke:none"
         id="path82" />
      <path
         d="m 1502.89,400.207 c -21.8,0 -42.6,1.152 -61.66,3.313 -0.17,0.019 -0.35,0.039 -0.52,0.058 -31.28,19.461 -66.46,33.16 -104.78,45.442 -14.44,4.628 -29.6,6.511 -45.15,6.511 -12.43,0 -25.11,-1.203 -37.91,-3.168 -2.8,4.285 -4.52,8.973 -4.96,14.106 -3.81,43.207 42.33,75.094 76.34,93.09 65.29,34.629 173.54,66.621 270.62,66.621 4.32,0 8.63,-0.067 12.9,-0.196 16.83,1.754 33.69,2.743 50.25,2.743 31.88,0 62.65,-3.653 89.94,-12.504 36.21,-11.754 122.37,-46.364 80.68,-98.774 -67.81,-85.265 -210.9,-117.246 -325.75,-117.242 m -169.17,119.148 c 0.01,-6.453 4.23,-12.753 11.1,-14.968 43.1,-13.918 91.31,-21.242 140.17,-21.242 88.58,0 179.31,24.066 245.64,76.523 3.18,2.516 4.53,6.078 4.54,9.75 0,5.543 -3.07,11.332 -7.63,14.145 -11.56,7.167 -23.46,12.183 -35.44,16.128 -2.29,4.391 -6.21,8.004 -12.19,8.789 -18.27,2.411 -36.27,3.528 -54.09,3.528 -50.55,0 -99.67,-9.008 -149.72,-23.106 -49.44,-13.914 -100.42,-21.226 -138,-59.082 -3.02,-3.05 -4.39,-6.785 -4.38,-10.465"
         style="fill:#442020;fill-opacity:1;fill-rule:nonzero;stroke:none"
         id="path84" />
      <path
         d="m 1785.26,403.035 c 0.64,1.809 1.27,3.621 1.91,5.438 0.18,0.511 0.33,1.019 0.45,1.519 35.4,26.469 72.15,45.555 109.96,58.313 41.85,4.8 83.26,10.05 124.17,10.05 22.27,0 44.39,-1.554 66.33,-5.585 -34.03,-1.411 -67.13,-4.59 -98.95,-10.317 -13.33,-0.051 -26.69,-0.566 -40.08,-1.687 -58.23,-4.887 -113.04,-28.043 -163.79,-57.731"
         style="fill:#a94d37;fill-opacity:1;fill-rule:nonzero;stroke:none"
         id="path86" />
      <path
         d="m 1517.06,331.129 c -6.23,4.211 -12.53,8.293 -18.88,12.242 -2.16,2.16 -4.37,4.277 -6.65,6.348 -41.83,37.945 -92.72,65.636 -146.23,82.531 -32.56,10.285 -66.38,14.742 -100.33,14.742 -7.8,0 -15.62,-0.234 -23.43,-0.691 10.47,2.367 20.93,4.469 31.33,6.062 12.8,1.965 25.48,3.168 37.91,3.168 15.55,0 30.71,-1.883 45.15,-6.511 38.32,-12.282 73.5,-25.981 104.78,-45.442 28.99,-18.039 54.64,-41.027 76.35,-72.449"
         style="fill:#a94d37;fill-opacity:1;fill-rule:nonzero;stroke:none"
         id="path88" />
      <path
         d="m 434.723,639.109 c -11.164,4.895 -16.563,12.063 -18.075,20.239 0.02,0.019 0.04,0.043 0.063,0.058 1.48,-8.191 6.836,-15.386 18.012,-20.297 m 164.902,33.899 c 50.414,23.707 201.441,90.594 193.801,164.371 0.156,0.059 0.312,0.121 0.469,0.184 7.921,-73.864 -143.793,-140.825 -194.27,-164.555"
         style="fill:#4e282a;fill-opacity:1;fill-rule:nonzero;stroke:none"
         id="path90" />
      <path
         d="m 588.867,449.645 c -3.312,2.957 -6.695,5.871 -10.152,8.746 -26.695,30.949 -58.336,57.152 -96.899,79.07 -26.839,15.25 -55.843,19.769 -85.461,19.769 -13.968,0 -28.07,-1.003 -42.152,-2.359 -9.543,1 -19.051,1.594 -28.496,1.758 21.168,26.094 42.703,52.191 65.609,76.793 -0.566,-9.52 1.079,-18.899 5.891,-27.664 6.445,-11.75 20.867,-16.09 38.836,-16.09 44.668,0 111.254,26.809 131.715,33.168 96.344,29.969 231.344,113.027 259.89,218.086 5.622,-5.024 4.02,-17.352 -8.566,-40.043 -16.359,-29.453 -38.559,-55.949 -60.598,-81.234 -61.796,-70.903 -164.89,-105.465 -246.82,-146.856 -8.351,-4.199 -10.316,-17.734 -3.094,-23.898 35.672,-30.438 62.578,-61.297 80.297,-99.246"
         style="fill:#ba6645;fill-opacity:1;fill-rule:nonzero;stroke:none"
         id="path92" />
      <path
         d="m 436.043,589.668 c -17.969,0 -32.391,4.34 -38.836,16.09 -4.812,8.765 -6.457,18.144 -5.891,27.664 8.25,8.859 16.68,17.527 25.332,25.926 1.512,-8.176 6.911,-15.344 18.075,-20.239 v 0 c 10.929,-4.785 22.972,-6.793 35.578,-6.793 44.234,0 95.359,24.723 129.324,40.692 v 0 c 50.477,23.73 202.191,90.691 194.27,164.555 9.789,3.835 18.281,6.093 24.636,6.093 3.914,0 7.02,-0.859 9.117,-2.734 C 799.102,735.863 664.102,652.805 567.758,622.836 547.297,616.477 480.711,589.668 436.043,589.668"
         style="fill:#442020;fill-opacity:1;fill-rule:nonzero;stroke:none"
         id="path94" />
      <path
         d="m 578.715,458.391 c -60.875,50.613 -143.805,88.019 -224.512,96.48 14.082,1.356 28.184,2.359 42.152,2.359 29.618,0 58.622,-4.519 85.461,-19.769 38.563,-21.918 70.204,-48.121 96.899,-79.07"
         style="fill:#a94d37;fill-opacity:1;fill-rule:nonzero;stroke:none"
         id="path96" />
      <path
         d="m 1019.03,557.945 c -57.647,8.703 -115.175,17.743 -174.362,18.028 -1.313,0.004 -2.625,0.007 -3.941,0.007 -47.93,0 -95.61,-4.519 -143.387,-7.5 -4.738,-0.296 -9.442,-0.429 -14.11,-0.429 -20.449,0 -40.281,2.609 -60.031,5.816 54.223,15.707 101.672,26.199 163.805,26.77 1.277,0.008 2.555,0.015 3.832,0.015 80.996,0 151.656,-23.007 228.194,-42.707"
         style="fill:#fcc99a;fill-opacity:1;fill-rule:nonzero;stroke:none"
         id="path98" />
      <path
         d="m 449.625,326.699 c -2.973,0 -5.949,0.02 -8.926,0.071 -63.976,8.449 -139.636,24.46 -182.14,63.468 -13.739,15.063 -24.735,32.91 -31.309,54.86 l -0.094,0.386 c -0.472,1.664 -0.625,3.653 -1.062,5.36 69.859,-67.875 163.203,-102.696 258.246,-123.024 -11.485,-0.761 -23.078,-1.121 -34.715,-1.121"
         style="fill:#fcc99a;fill-opacity:1;fill-rule:nonzero;stroke:none"
         id="path100" />
      <path
         d="m 1135.44,936.957 c -23.18,6.098 -46.72,10.871 -71.97,11.926 -2.74,0.113 -5.5,0.168 -8.28,0.168 -16.06,0 -32.87,-1.75 -49.85,-3.496 -16.992,-1.75 -34.156,-3.496 -50.93,-3.496 -10.437,0 -20.726,0.675 -30.722,2.453 36.886,9.676 70.304,24.601 110.342,24.601 2.27,0 4.57,-0.05 6.88,-0.148 35.2,-1.535 65.91,-14.047 94.53,-32.008"
         style="fill:#fcc99a;fill-opacity:1;fill-rule:nonzero;stroke:none"
         id="path102" />
      <path
         d="m 1299.63,1028.24 c -12.45,3.55 -24.91,7.06 -37.25,9.5 -18.76,3.71 -39.09,2.6 -55.35,14.08 -11.15,7.88 -22.86,21.18 -30.41,35.75 0.57,8.56 2.32,17.19 4.34,25.82 9.42,-8.21 18.75,-15.36 24.56,-20.42 29.34,-25.58 61,-46.04 94.11,-64.73"
         style="fill:#fcc99a;fill-opacity:1;fill-rule:nonzero;stroke:none"
         id="path104" />
      <path
         d="m 1308.11,726.547 0.05,0.098 c 84.06,96.472 202.38,169.605 330.21,169.605 18.75,0 37.71,-1.574 56.79,-4.879 -40.48,-5.375 -79.88,-15.523 -118.25,-29.238 -15.47,-2.391 -30.8,-5.488 -45.85,-9.836 -68.49,-19.813 -132.96,-61.402 -189.37,-106.758 -11.23,-6.375 -22.41,-12.703 -33.58,-18.992"
         style="fill:#fcc99a;fill-opacity:1;fill-rule:nonzero;stroke:none"
         id="path106" />
      <path
         d="m 1685.44,1040.77 c 23.81,14.97 49.12,27.03 75.51,36.45 22.72,3.4 46.05,4.78 69.53,4.78 41.01,0 82.47,-4.21 121.95,-9.24 3.11,-0.4 -1.71,-7.71 -4.58,-7.71 -0.04,0 -0.08,0 -0.12,0 -25.12,1.8 -50.07,3.29 -74.9,3.29 -37.21,0 -74.14,-3.34 -110.87,-13.92 -24.52,-7.08 -51.31,-8.78 -76.52,-13.65"
         style="fill:#fcc99a;fill-opacity:1;fill-rule:nonzero;stroke:none"
         id="path108" />
      <path
         d="m 1809.11,372.809 c 35.86,22.058 72.39,38.523 113.77,52.062 23.12,7.574 45.88,9.457 68.78,9.457 15.65,0 31.38,-0.883 47.31,-1.43 -76.23,-21.351 -152.89,-41.613 -229.86,-60.089"
         style="fill:#fcc99a;fill-opacity:1;fill-rule:nonzero;stroke:none"
         id="path110" />
      <path
         d="m 2431.44,606.637 c -53.69,22.117 -110.2,44.918 -166.56,53.926 -8,1.281 -16.08,1.863 -24.2,1.863 -28.02,0 -56.65,-6.938 -84.91,-16.102 17.93,11.473 36.95,22.207 56.75,30.18 9.27,1.832 18.77,3.101 28.78,3.101 3.43,0 6.93,-0.152 10.5,-0.48 73.51,-6.727 124.64,-20.465 179.43,-71.391 l 0.21,-1.097"
         style="fill:#fcc99a;fill-opacity:1;fill-rule:nonzero;stroke:none"
         id="path112" />
      <path
         d="m 2706.66,562.598 c 15.1,35.261 12.43,68.715 -9.37,110.132 -17,32.364 -35.31,64.34 -56.59,94.137 -4.89,3.278 5.18,14.766 9.96,14.766 0.14,0 0.28,-0.012 0.41,-0.031 43.22,-6.821 101.01,-98.313 98.01,-139.258 -1.34,-18.496 -5.61,-35.817 -12.19,-52.094 l -1.04,-0.809 c -10.4,-8.386 -19.85,-17.574 -29.19,-26.843"
         style="fill:#eeb387;fill-opacity:1;fill-rule:nonzero;stroke:none"
         id="path114" />
    </g>
  </g>
</svg>
